<?xml version="1.0" encoding="utf-8"?> 
<!DOCTYPE svg PUBLIC "-//W3C//DTD SVG 1.1//EN" "http://www.w3.org/Graphics/SVG/1.1/DTD/svg11.dtd">
<svg width="512" height="7680" xmlns="http://www.w3.org/2000/svg" xmlns:xlink="http://www.w3.org/1999/xlink">
	<g>
		<path d="M211.9 197.4h-36.7v59.9h36.7V433.1h70.5V256.5h49.2l5.2-59.1h-54.4c0 0 0-22.1 0-33.7 0-13.9 2.8-19.5 16.3-19.5 10.9 0 38.2 0 38.2 0V82.9c0 0-40.2 0-48.8 0 -52.5 0-76.1 23.1-76.1 67.3C211.9 188.8 211.9 197.4 211.9 197.4z"/>
	</g>
	<g transform="translate(0,512)">
		<path d="M179.7 237.6L179.7 284.2 256.7 284.2C253.6 304.2 233.4 342.9 179.7 342.9 133.4 342.9 95.6 304.4 95.6 257 95.6 209.6 133.4 171.1 179.7 171.1 206.1 171.1 223.7 182.4 233.8 192.1L270.6 156.6C247 134.4 216.4 121 179.7 121 104.7 121 44 181.8 44 257 44 332.2 104.7 393 179.7 393 258 393 310 337.8 310 260.1 310 251.2 309 244.4 307.9 237.6L179.7 237.6 179.7 237.6ZM468 236.7L429.3 236.7 429.3 198 390.7 198 390.7 236.7 352 236.7 352 275.3 390.7 275.3 390.7 314 429.3 314 429.3 275.3 468 275.3"/>
	</g>
	<g transform="translate(0,1024)">
		<path d="M266.6 76.5c-100.2 0-150.7 71.8-150.7 131.7 0 36.3 13.7 68.5 43.2 80.6 4.8 2 9.2 0.1 10.6-5.3 1-3.7 3.3-13 4.3-16.9 1.4-5.3 0.9-7.1-3-11.8 -8.5-10-13.9-23-13.9-41.3 0-53.3 39.9-101 103.8-101 56.6 0 87.7 34.6 87.7 80.8 0 60.8-26.9 112.1-66.8 112.1 -22.1 0-38.6-18.2-33.3-40.6 6.3-26.7 18.6-55.5 18.6-74.8 0-17.3-9.3-31.7-28.4-31.7 -22.5 0-40.7 23.3-40.7 54.6 0 19.9 6.7 33.4 6.7 33.4s-23.1 97.8-27.1 114.9c-8.1 34.1-1.2 75.9-0.6 80.1 0.3 2.5 3.6 3.1 5 1.2 2.1-2.7 28.9-35.9 38.1-69 2.6-9.4 14.8-58 14.8-58 7.3 14 28.7 26.3 51.5 26.3 67.8 0 113.8-61.8 113.8-144.5C400.1 134.7 347.1 76.5 266.6 76.5z"/>
	</g>
	<g transform="translate(0,1536)">
		<path d="M274.5 216.4l23.1 12.8 36.5-12.3v-24.7c0-42.7-35.7-75.9-78.1-75.9 -42.3 0-78.1 31.1-78.1 75.4 0 44.4 0 113.1 0 113.1 0 10.2-8.3 18.5-18.5 18.5 -10.2 0-18.5-8.3-18.5-18.5v-47.9H80.9c0 0 0 48 0 48.6 0 43.2 35 78.3 78.3 78.3 42.9 0 77.7-34.4 78.3-77.2v-111.7c0-10.2 8.3-18.5 18.5-18.5 10.2 0 18.5 8.3 18.5 18.5L274.5 216.4 274.5 216.4zM371.2 256.9v50.2c0 10.2-8.3 18.5-18.5 18.5 -10.2 0-18.5-8.3-18.5-18.5v-49.2l-36.5 12.4 -23.1-12.8v48.8c0.4 42.9 35.3 77.6 78.3 77.6 43.2 0 78.3-35 78.3-78.3 0-0.6 0-48.6 0-48.6L371.2 256.9 371.2 256.9z"/>
	</g>
	<g transform="translate(0,2048)">
		<path d="M419.6 168.6c-11.7 5.2-24.2 8.7-37.4 10.2 13.4-8.1 23.8-20.8 28.6-36 -12.6 7.5-26.5 12.9-41.3 15.8 -11.9-12.6-28.8-20.6-47.5-20.6 -42 0-72.9 39.2-63.4 79.9 -54.1-2.7-102.1-28.6-134.2-68 -17 29.2-8.8 67.5 20.1 86.9 -10.7-0.3-20.7-3.3-29.5-8.1 -0.7 30.2 20.9 58.4 52.2 64.6 -9.2 2.5-19.2 3.1-29.4 1.1 8.3 25.9 32.3 44.7 60.8 45.2 -27.4 21.4-61.8 31-96.4 27 28.8 18.5 63 29.2 99.8 29.2 120.8 0 189.1-102.1 185-193.6C399.9 193.1 410.9 181.7 419.6 168.6z"/>
	</g>
	<g transform="translate(0,2560)">
		<mask id="plus" x="0" y="0" width="512" height="512">
			<circle cx="256" cy="256" r="256" fill="white"/>
			<line x1="248" y1="120" x2="248" y2="392" stroke-width="48" stroke="black"/>
			<line x1="120" y1="248" x2="392" y2="248" stroke-width="48" stroke="black"/>
		</mask>
		<rect width="512" height="512" fill="#444" mask="url(#plus)"/>
	</g>
	<g transform="translate(0,3072)">
		<mask id="down" x="0" y="0" width="512" height="512">
			<circle cx="256" cy="256" r="256" fill="white"/>
			<g transform="scale(16)">
				<path d="M16.003 18.626l7.081-7.081L25 13.46l-8.997 8.998-9.003-9 1.917-1.916z" stroke="black"/>
			</g>
		</mask>
		<rect width="512" height="512" fill="#444" mask="url(#down)"/>
	</g>
	<g transform="translate(0,3584)">
		<mask id="up" x="0" y="0" width="512" height="512">
			<circle cx="256" cy="256" r="256" fill="white"/>
			<g transform="scale(16)">
				<path d="M15.997 13.374l-7.081 7.081L7 18.54l8.997-8.998 9.003 9-1.916 1.916z"/>
			</g>
		</mask>
		<rect width="512" height="512" fill="#444" mask="url(#up)"/>
	</g>
	<g transform="translate(0,4096)"><!-- 500px -->
		<!--<path d="M256.3 293c26.9 31.2 58.3 58.5 99.9 58.5 56.1 0 89.5-42.6 89.5-96.8 0-54-34.1-94.2-89-94.2 -43.9 0-72.7 28.5-100.4 62.1 -28.5-34.1-56.7-62.1-101.4-62.1 -53.5 0-88.5 40.2-88.5 95.2 0 54.6 35.8 95.7 90.8 95.7C204.1 351.5 228.7 321.9 256.3 293zM115.5 256.8c0-21.3 13.9-44.5 39.3-44.5 26 0 52.7 25.9 70.4 45 -17.2 20.1-42.5 41.9-68.8 41.9C130.3 299.2 115.5 281.1 115.5 256.8zM287.3 257.3c18.4-19.9 41.2-45 68.3-45 26.4 0 41.4 20.8 41.4 44 0 23.4-13.7 43-39.8 43C329.2 299.2 305.7 278.5 287.3 257.3z"/>-->
		<g transform="translate(50, 50) scale(15)">
			<path d="M5.926 15.765l.204.534c.396.935.961 1.775 1.683 2.497.721.721 1.561 1.287 2.497 1.683.969.41 1.998.617 3.058.617 1.06 0 2.089-.208 3.058-.618.936-.396 1.775-.962 2.497-1.683s1.288-1.561 1.684-2.497c.41-.969.618-1.998.618-3.058 0-1.06-.208-2.089-.618-3.058-.396-.935-.962-1.775-1.684-2.497-.721-.721-1.561-1.288-2.497-1.684-.969-.41-1.998-.617-3.058-.617-1.073 0-2.145.213-3.101.617-.763.323-2.056 1.155-2.812 1.935l-.004-6.46h10.86c.395-.004.395-.556.395-.737 0-.182 0-.733-.396-.738h-11.743c-.32 0-.518.266-.518.512v9.101c0 .293.366.505.706.578.664.142.817-.07.979-.295l.022-.03c.248-.369 1.023-1.149 1.031-1.157 1.21-1.21 2.828-1.876 4.555-1.876 1.72 0 3.333.667 4.543 1.876 1.214 1.214 1.883 2.823 1.883 4.53 0 1.713-.666 3.322-1.874 4.53-1.192 1.193-2.858 1.876-4.57 1.876-1.16 0-2.279-.309-3.238-.894l.004-5.533c0-.738.32-1.54.857-2.146.613-.692 1.458-1.073 2.379-1.073.893 0 1.726.338 2.347.954.616.611.956 1.424.956 2.291 0 1.849-1.454 3.297-3.31 3.297-.358 0-1.008-.158-1.035-.165-.375-.112-.534.409-.586.58-.202.66.101.791.164.81.597.185.989.22 1.503.22 2.62 0 4.752-2.133 4.752-4.754 0-2.601-2.13-4.716-4.749-4.716-1.283 0-2.487.49-3.393 1.38-.862.848-1.356 1.978-1.356 3.101v.028c-.004.14-.007 3.457-.008 4.545-.493-.545-.984-1.385-1.307-2.238-.126-.334-.412-.275-.802-.155-.172.052-.69.212-.576.587zm5.584-1.296c.001.159.147.299.234.382l.027.026c.149.147.291.221.422.221.109 0 .175-.051.199-.073l.879-.886.829.826c.077.086.16.13.257.132.132 0 .276-.079.428-.233.357-.365.179-.562.092-.657l-.839-.84.875-.881c.192-.208.023-.429-.146-.598-.246-.246-.482-.309-.634-.169l-.871.872-.88-.881c-.047-.044-.105-.068-.17-.068-.117 0-.256.08-.413.236-.271.271-.329.458-.188.607l.88.877-.875.877c-.071.073-.107.15-.106.23zm1.919-11.898c-1.407 0-2.904.284-4.004.76-.118.046-.188.141-.204.273-.014.125.02.29.104.505.068.174.25.637.6.503 1.125-.429 2.37-.666 3.504-.666 1.285 0 2.53.251 3.703.747.932.395 1.811.964 2.767 1.792.07.061.144.091.22.091.187 0 .365-.183.518-.354.255-.286.431-.524.179-.762-.913-.865-1.913-1.511-3.148-2.033-1.343-.568-2.77-.856-4.239-.856zm7.582 17.377c-.169-.169-.313-.269-.44-.305-.128-.037-.243-.009-.331.079l-.083.083c-.872.872-1.888 1.557-3.019 2.035-1.17.495-2.414.746-3.696.746s-2.525-.251-3.696-.746c-1.131-.478-2.146-1.163-3.019-2.035-.909-.909-1.594-1.924-2.035-3.019-.431-1.067-.572-1.87-.618-2.133l-.01-.057c-.059-.311-.345-.332-.756-.27-.17.026-.69.106-.641.48l.001.008c.138.866.381 1.714.723 2.523.549 1.299 1.336 2.466 2.337 3.467s2.168 1.788 3.467 2.337c1.346.57 2.774.859 4.247.859 1.472 0 2.901-.289 4.247-.858 1.298-.549 2.465-1.336 3.467-2.338l.087-.089c.11-.12.206-.33-.232-.767z"/>
		</g>
	</g>
	<g transform="translate(0,4608)"><!-- Flickr -->
		<!--<path d="M344.5 156.9c-38.7 0-72.1 22.1-88.5 54.4 -16.4-32.3-49.8-54.4-88.5-54.4 -54.8 0-99.1 44.4-99.1 99.1 0 54.8 44.4 99.1 99.1 99.1 38.6 0 72.1-22.1 88.5-54.4 16.4 32.3 49.8 54.4 88.5 54.4 54.8 0 99.1-44.4 99.1-99.1C443.6 201.2 399.2 156.9 344.5 156.9zM344.5 328.7c-40.1 0-72.7-32.6-72.7-72.7s32.6-72.7 72.7-72.7 72.7 32.6 72.7 72.7C417.2 296.1 384.6 328.7 344.5 328.7z"/>-->
		<circle cx="136" cy="256" r="96" fill="#0059d4"/>
		<circle cx="376" cy="256" r="96" fill="#da1593"/>
	</g>
	<g transform="translate(0,5120)"><!-- Instagram -->
		<path d="M256 109.3c47.8 0 53.4 0.2 72.3 1 17.4 0.8 26.9 3.7 33.2 6.2 8.4 3.2 14.3 7.1 20.6 13.4 6.3 6.3 10.1 12.2 13.4 20.6 2.5 6.3 5.4 15.8 6.2 33.2 0.9 18.9 1 24.5 1 72.3s-0.2 53.4-1 72.3c-0.8 17.4-3.7 26.9-6.2 33.2 -3.2 8.4-7.1 14.3-13.4 20.6 -6.3 6.3-12.2 10.1-20.6 13.4 -6.3 2.5-15.8 5.4-33.2 6.2 -18.9 0.9-24.5 1-72.3 1s-53.4-0.2-72.3-1c-17.4-0.8-26.9-3.7-33.2-6.2 -8.4-3.2-14.3-7.1-20.6-13.4 -6.3-6.3-10.1-12.2-13.4-20.6 -2.5-6.3-5.4-15.8-6.2-33.2 -0.9-18.9-1-24.5-1-72.3s0.2-53.4 1-72.3c0.8-17.4 3.7-26.9 6.2-33.2 3.2-8.4 7.1-14.3 13.4-20.6 6.3-6.3 12.2-10.1 20.6-13.4 6.3-2.5 15.8-5.4 33.2-6.2C202.6 109.5 208.2 109.3 256 109.3M256 77.1c-48.6 0-54.7 0.2-73.8 1.1 -19 0.9-32.1 3.9-43.4 8.3 -11.8 4.6-21.7 10.7-31.7 20.6 -9.9 9.9-16.1 19.9-20.6 31.7 -4.4 11.4-7.4 24.4-8.3 43.4 -0.9 19.1-1.1 25.2-1.1 73.8 0 48.6 0.2 54.7 1.1 73.8 0.9 19 3.9 32.1 8.3 43.4 4.6 11.8 10.7 21.7 20.6 31.7 9.9 9.9 19.9 16.1 31.7 20.6 11.4 4.4 24.4 7.4 43.4 8.3 19.1 0.9 25.2 1.1 73.8 1.1s54.7-0.2 73.8-1.1c19-0.9 32.1-3.9 43.4-8.3 11.8-4.6 21.7-10.7 31.7-20.6 9.9-9.9 16.1-19.9 20.6-31.7 4.4-11.4 7.4-24.4 8.3-43.4 0.9-19.1 1.1-25.2 1.1-73.8s-0.2-54.7-1.1-73.8c-0.9-19-3.9-32.1-8.3-43.4 -4.6-11.8-10.7-21.7-20.6-31.7 -9.9-9.9-19.9-16.1-31.7-20.6 -11.4-4.4-24.4-7.4-43.4-8.3C310.7 77.3 304.6 77.1 256 77.1L256 77.1z"/>
		<path d="M256 164.1c-50.7 0-91.9 41.1-91.9 91.9s41.1 91.9 91.9 91.9 91.9-41.1 91.9-91.9S306.7 164.1 256 164.1zM256 315.6c-32.9 0-59.6-26.7-59.6-59.6s26.7-59.6 59.6-59.6 59.6 26.7 59.6 59.6S288.9 315.6 256 315.6z"/>
		<circle cx="351.5" cy="160.5" r="21.5"/>
	</g>
	<g transform="translate(0,5632)"><!-- SmugMug -->
		<g transform="translate(50,50) scale(0.9)">
			<path d="M173.936,32.259c0,17.831-18.62,32.268-41.553,32.268c-22.965,0-41.593-14.438-41.593-32.268   C90.79,14.447,109.418,0,132.383,0C155.316,0,173.936,14.447,173.936,32.259z M319.444,0c-22.935,0-41.575,14.447-41.575,32.259   c0,17.831,18.636,32.268,41.575,32.268c22.962,0,41.578-14.438,41.578-32.268C361.022,14.447,342.406,0,319.444,0z M430.119,164   c0,31.762-71.075,266.119-253.808,266.119c-182.723,0-203.051-171.804-152.277-277.707c10.151-21.2,20.302-23.356,20.302-23.356   h355.316C399.652,129.055,430.119,132.2,430.119,164z M387.042,172.071H61.167c-21.52,43.012-30.308,111.996-1.481,160.767   c26.635,44.953,78.11,54.344,116.625,54.344C314.87,387.182,376.732,215.083,387.042,172.071z" stroke="OliveDrab" fill="OliveDrab"/>
		</g>
	</g>
	<g transform="translate(0,6144)"><!-- Zenfolio -->
		<g transform="translate(-225,-100) scale(0.13)">
			<path d="M4577 3165 c-240 -40 -350 -81 -804 -306 -210 -103 -422 -204 -470 -224 -48 -20 -101 -42 -118 -50 -56 -25 -260 -84 -335 -96 -41 -7 -118 -13 -170 -13 -81 0 -101 4 -135 23 -47 27 -55 37 -55 72 0 61 83 110 208 125 72 8 164 -17 275 -73 45 -22 73 -31 79 -25 6 6 -20 26 -74 55 -209 114 -331 139 -490 98 -142 -36 -245 -108 -292 -203 -49 -97 -25 -200 62 -265 56 -43 109 -56 213 -55 189 1 370 67 704 257 191 109 472 245 605 294 200 73 482 103 625 66 128 -33 228 -104 268 -188 22 -46 24 -131 4 -179 -90 -215 -492 -278 -992 -154 -77 19 -201 56 -275 81 -162 56 -176 60 -183 48 -4 -6 47 -37 111 -71 197 -102 382 -173 581 -222 201 -49 252 -55 491 -55 196 1 239 4 329 23 430 94 688 278 734 524 18 98 -21 227 -91 303 -83 91 -224 168 -362 200 -102 23 -329 28 -443 10z" fill="Chocolate"/>
		</g>
	</g>
	<g transform="translate(0,6656)"><!-- WordPress -->
		<path d="M453.499 256.676c0-20.459-3.164-40.263-8.899-58.819l-88.177 228.833c58.082-34.365 97.075-97.618 97.075-170.014z" />
		<path d="M193.628 443.884c19.63 6.594 40.642 10.137 62.526 10.137 22.866 0 44.769-3.87 65.188-11.029l-60.242-156.18-67.471 157.072z" />
		<path d="M66.837 200.888c-5.212 17.684-8.059 36.403-8.059 55.787 0 73.954 40.714 138.393 100.894 172.155l-92.231-226.703-0.604-1.239z" />
		<path d="M167.383 188.16l-8.478-0.379c-18.494-0.307-16.446 18.893-16.446 18.893l65.618 164.577 44.114-105.37-24.627-62.7c-9.861-16.578-33.925-16.404-33.925-16.404v-8.734h137.974l-0.205 9.687-14.356 0.891c-17.879 0-14.264 17.008-14.264 17.008l59.873 159.939 17.162-44.288c30.443-69.017 11.663-120.094 11.663-120.094-30.485-62.72 8.038-71.721 8.038-71.721 2.437-0.348 4.721-0.542 6.963-0.645-36.199-42.537-90.122-69.519-150.323-69.519-81.398 0-151.316 49.326-181.474 119.706l92.365-0.952 0.327 10.107z" />
		<path d="M477.839 256.021c0 122.306-99.522 221.839-221.798 221.839-122.338 0-221.86-99.533-221.86-221.839 0-122.338 99.522-221.829 221.86-221.829 122.276 0.010 221.798 99.492 221.798 221.829zM256.041 23.972c-127.939 0-232.048 104.11-232.048 232.059s104.11 232.007 232.048 232.007c127.918 0 231.957-104.059 231.957-232.007 0-127.949-104.038-232.059-231.957-232.059z" />
	</g>
	<g transform="translate(0,7168)">
		<g transform="translate(50,50) scale(4)">
			<path fill="#e9eaeb" d="m51.781 0c-28.597 0-51.781 23.184-51.781 51.781s23.184 51.781 51.781 51.781 51.781-23.184 51.781-51.781-23.181-51.781-51.779-51.781zm0.28125 31.625 9.5938 7.0312 9.5938 7.0625-3.7188 11.344-3.75 11.281l-11.906-0.031-11.906-0.062-3.657-11.344-3.593-11.344 9.6562-7 9.6875-6.9375z"/>
			<path fill="#0dab62" d="m46.031 71.906c-2.5812 0-3.9361 1.7885-2.9688 4.5938l6.6562 19.344c0.68102 0.03121 1.3738 0.0625 2.0625 0.0625 17.121 0 31.963-9.7503 39.281-24h-45.031z"/>
			<path fill="#ffd34e" d="m69.026 63.672c-0.82729 2.445 0.43259 4.3017 3.3999 4.2845l20.457-0.10521c0.24784-0.63509 0.49951-1.2813 0.72026-1.9337 5.4875-16.218 1.0085-33.401-10.144-44.901l-14.433 42.656z"/>
			<path fill="#448afd" d="m30.847 52.424c-0.787-2.458-2.904-3.203-5.28-1.426l-16.391 12.241c0.17806 0.65807 0.35962 1.3273 0.56975 1.9832 5.2242 16.305 19.037 27.464 34.841 30.086l-13.74-42.884z"/>
			<path fill="#9b479f" d="m44.32 32.185c2.0659-1.5475 2.078-3.7912-0.378-5.4565l-16.925-11.49c-0.56377 0.38331-1.137 0.77358-1.6882 1.1865-13.703 10.265-19.736 26.966-17.05 42.759l36.041-26.998z"/>
			<path fill="#e04a3f" d="m68.282 38.84c2.0889 1.5162 4.236 0.86467 5.101-1.9738l5.976-19.565c-0.533-0.425-1.075-0.857-1.632-1.262-13.856-10.057-31.595-10.884-45.888-3.651l36.443 26.452z"/>
		</g>
	</g>
</svg>