<?xml version="1.0" encoding="UTF-8"?>
<svg width="1692px" height="1658px" viewBox="0 0 1692 1658" version="1.1" xmlns="http://www.w3.org/2000/svg" xmlns:xlink="http://www.w3.org/1999/xlink">
    <g >
        <g transform="translate(846.000000, 829.000000) scale(-1, 1) translate(-846.000000, -829.000000) " >
            <path d="M1216.598,1657.973 C1201.563,1657.973 1186.672,1653.151 1174.614,1643.227 L735.087,1281.973 L158.332,1281.973 C71.515,1281.973 0,1209.012 0,1120.074 L0,160.168 C0,71.627 71.515,0.973 158.332,0.973 L1533.168,0.973 C1620.911,0.973 1692,71.628 1692,160.168 L1692,1120.077 C1692,1209.015 1620.911,1281.973 1533.168,1281.973 L1282,1281.973 L1282,1591.903 C1282,1617.464 1267.585,1640.729 1244.472,1651.647 C1235.479,1655.892 1226.173,1657.973 1216.598,1657.973 Z M158.332,132.973 C144.379,132.973 133,144.493 133,160.168 L133,1120.074 C133,1135.879 144.615,1149.972 158.332,1149.972 L758.77,1149.972 C774.081,1149.972 788.66,1154.922 800.485,1164.646 L1150,1451.998 L1150,1215.299 C1150,1178.809 1180.096,1149.973 1216.586,1149.973 L1533.168,1149.973 C1547.291,1149.973 1560,1135.334 1560,1120.077 L1560,160.168 C1560,145.022 1547.543,132.973 1533.168,132.973 L158.332,132.973 Z" id="Shape"></path>
        </g>
    </g>
</svg>